<svg id="HABEAT_linee_curve" data-name="HABEAT linee curve" xmlns="http://www.w3.org/2000/svg" xmlns:xlink="http://www.w3.org/1999/xlink" viewBox="0 0 132.8 67"><defs><style>.cls-1,.cls-4,.cls-5{fill:none;}.cls-1{stroke:#475728;}.cls-1,.cls-5{stroke-miterlimit:10;stroke-width:0.25px;}.cls-2{fill:#047825;}.cls-3{fill:#c26c36;}.cls-5{stroke:#000;}.cls-6{opacity:0.9;fill:url(#Sfumatura_senza_nome_55);}</style><linearGradient id="Sfumatura_senza_nome_55" x1="274.68" y1="56.37" x2="286.87" y2="56.37" gradientUnits="userSpaceOnUse"><stop offset="0" stop-color="#a3e09d"/><stop offset="0.13" stop-color="#9edd9a"/><stop offset="0.27" stop-color="#91d48f"/><stop offset="0.42" stop-color="#7ac57e"/><stop offset="0.57" stop-color="#5bb166"/><stop offset="0.73" stop-color="#339648"/><stop offset="0.88" stop-color="#047825"/></linearGradient></defs><title>habEAT esperimenti</title><g id="HABEAT"><path class="cls-1" d="M281.62,73.81c3.28-3.52,6.56-5.87,9.84-17.17,3.28-11.63,6.56-14,9.84-17.5" transform="translate(-208.74 -26.19)"/><path class="cls-2" d="M296.74,89.14a8,8,0,0,1-1.11,1.35,6.87,6.87,0,0,1-.83.7,3.23,3.23,0,0,1-.92.42,6.3,6.3,0,0,1-1.21.21c-.46,0-1,.06-1.73.06h-4a6.09,6.09,0,0,1-.82,0,2.45,2.45,0,0,1-.53-.15.86.86,0,0,1-.31-.24,1.46,1.46,0,0,1-.17-.3,7.21,7.21,0,0,1-.14-1.93V81.35h5.24a7.93,7.93,0,0,1,1.28.09,4.14,4.14,0,0,1,.93.26,2.16,2.16,0,0,1,.63.42,1.88,1.88,0,0,1,.41.55,3.74,3.74,0,0,1,.24.8c.09.37.17.85.25,1.43h.65V76.61h-.65a8,8,0,0,1-.21,1.54,2.32,2.32,0,0,1-.56,1.08,2.4,2.4,0,0,1-1.12.64,7.14,7.14,0,0,1-1.85.2h-5.24V70.65h6.54a8,8,0,0,1,2.48.26,3.79,3.79,0,0,1,.75.43,2.21,2.21,0,0,1,.56.64,4.45,4.45,0,0,1,.44,1,15.57,15.57,0,0,1,.39,1.57h.42V69.35H285.83l-4.28,4.31V89a7.84,7.84,0,0,1-.21,2.3,1.28,1.28,0,0,1-.37.56,2.16,2.16,0,0,1-.59.39,2.55,2.55,0,0,1-.69.23,3.53,3.53,0,0,1-.7.07h-.85v.65h18.37l2.06-6h-.7A18.3,18.3,0,0,1,296.74,89.14Z" transform="translate(-208.74 -26.19)"/><line class="cls-3" x1="101.48" y1="48.36" x2="101.48" y2="48.35"/><path class="cls-3" d="M310.22,74.56v0" transform="translate(-208.74 -26.19)"/><path class="cls-2" d="M321.8,69.35v5.59h.67a8,8,0,0,1,.53-2.1A2.92,2.92,0,0,1,325.28,71a9.7,9.7,0,0,1,1.9-.16h2.87V89.05a5.26,5.26,0,0,1-.39,2.57,2.42,2.42,0,0,1-2.14.91h-.85v.65h10.11v-.65H336a2.57,2.57,0,0,1-2.05-.74,4.8,4.8,0,0,1-.48-2.74V70.84h3.36a6.23,6.23,0,0,1,1.76.22,3.25,3.25,0,0,1,1.28.7,3.54,3.54,0,0,1,.85,1.27,7.11,7.11,0,0,1,.47,1.91h.4V69.35Z" transform="translate(-208.74 -26.19)"/><path d="M276.47,37.86a6.42,6.42,0,0,0,3.21-2.1,5.11,5.11,0,0,0,1.09-3.21,5.51,5.51,0,0,0-.35-2,5.31,5.31,0,0,0-1-1.71,6.6,6.6,0,0,0-1.69-1.36,9,9,0,0,0-2.33-.89,20.41,20.41,0,0,0-4.62-.42H260.43v.65h.9a2.58,2.58,0,0,1,2,.77,4.89,4.89,0,0,1,.51,2.8V45.8a5.48,5.48,0,0,1-.4,2.62,2.43,2.43,0,0,1-2.15.95h-.9V50h11.63l.4-1.06c-.85-.07-4.35-.46-5.21-.66V38.53a10.32,10.32,0,0,1,1.24-.13c.51,0,1.14,0,1.88,0a11.49,11.49,0,0,1,3.29.42A7,7,0,0,1,276,39.94a4.73,4.73,0,0,1,1.18,1.36L279.42,39c-.16-.1-.3-.21-.47-.3A9.71,9.71,0,0,0,276.47,37.86Zm-.06-3a4.28,4.28,0,0,1-.83,1,4.65,4.65,0,0,1-1.15.72,10.35,10.35,0,0,1-3.85.55,19.25,19.25,0,0,1-3.33-.25V27.75a11.65,11.65,0,0,1,3.17-.39,9.31,9.31,0,0,1,2.88.41,6.35,6.35,0,0,1,2.09,1.09,4.5,4.5,0,0,1,1.71,3.55,4.78,4.78,0,0,1-.18,1.32A4.26,4.26,0,0,1,276.41,34.91Z" transform="translate(-208.74 -26.19)"/><path d="M236.2,48.69a4.14,4.14,0,0,1-1.94.68V50h7.51v-.65a8.31,8.31,0,0,1-1.42-.2,2.78,2.78,0,0,1-.85-.33,1,1,0,0,1-.39-.44,1.27,1.27,0,0,1-.1-.52.07.07,0,0,1,0-.05h-2.15A5.05,5.05,0,0,1,236.2,48.69Z" transform="translate(-208.74 -26.19)"/><line x1="37.17" y1="4.93" x2="37.17" y2="4.92"/><path d="M250.4,42.22l1.44,3.35c.24.55.41,1,.54,1.42a2.77,2.77,0,0,1,.16,1,1.17,1.17,0,0,1-.11.53,1.05,1.05,0,0,1-.39.43,2.23,2.23,0,0,1-.74.31,6.74,6.74,0,0,1-1.18.16V50h9.4v-.63a6.2,6.2,0,0,1-1.27-.19,2.59,2.59,0,0,1-1-.56,4.61,4.61,0,0,1-.89-1.14,16,16,0,0,1-.94-1.93l-7.68-19.38-2.12,5.25L249.91,41" transform="translate(-208.74 -26.19)"/><path d="M245.91,31.13v0" transform="translate(-208.74 -26.19)"/><path d="M223.19,26.84H224a3.33,3.33,0,0,1,1.6.42,2.12,2.12,0,0,1,.51.38,1.26,1.26,0,0,1,.29.54,5.4,5.4,0,0,1,.13.87c0,.35,0,.81,0,1.37v6.82H215.53V30.42a8.1,8.1,0,0,1,.21-2.32,1.47,1.47,0,0,1,.38-.57,2.11,2.11,0,0,1,.58-.39,2.38,2.38,0,0,1,.68-.23,3.51,3.51,0,0,1,.72-.07H219v-.65H208.74v.65h.85a3.37,3.37,0,0,1,1.62.42,2,2,0,0,1,.5.38,1.37,1.37,0,0,1,.28.54,4.47,4.47,0,0,1,.13.87c0,.35,0,.81,0,1.37V45.8a5.3,5.3,0,0,1-.42,2.71,2.52,2.52,0,0,1-2.14.86h-.85V50H219v-.65h-.86a3.21,3.21,0,0,1-1.6-.42,2.12,2.12,0,0,1-.51-.38,1.18,1.18,0,0,1-.29-.53,4.27,4.27,0,0,1-.14-.87c0-.35,0-.8,0-1.37V38.54H226.6V45.8a5,5,0,0,1-.44,2.71,2.54,2.54,0,0,1-2.12.86h-.85V50h10.2v-.65h-.85a3.25,3.25,0,0,1-1.61-.42,2.09,2.09,0,0,1-.5-.37,1.16,1.16,0,0,1-.28-.54,4.15,4.15,0,0,1-.14-.87c0-.35,0-.8,0-1.37V30.42a8.87,8.87,0,0,1,.19-2.32,1.47,1.47,0,0,1,.38-.57,2.16,2.16,0,0,1,.59-.39,2.5,2.5,0,0,1,.7-.23,3.53,3.53,0,0,1,.7-.07h.85l0-.65H223.19Z" transform="translate(-208.74 -26.19)"/><path class="cls-4" d="M277.1,32.41a4.5,4.5,0,0,0-1.71-3.55,6.35,6.35,0,0,0-2.09-1.09,9.31,9.31,0,0,0-2.88-.41,11.65,11.65,0,0,0-3.17.39v9.16a19.25,19.25,0,0,0,3.33.25,10.35,10.35,0,0,0,3.85-.55,4.65,4.65,0,0,0,1.15-.72,4.37,4.37,0,0,0,1.34-2.16A4.78,4.78,0,0,0,277.1,32.41Z" transform="translate(-208.74 -26.19)"/><path class="cls-2" d="M300.86,91.85a4.14,4.14,0,0,1-1.94.68v.65h7.51v-.65a9.81,9.81,0,0,1-1.43-.2,2.82,2.82,0,0,1-.84-.33,1.15,1.15,0,0,1-.4-.44,1.5,1.5,0,0,1-.09-.52V91h-2.14A5.05,5.05,0,0,1,300.86,91.85Z" transform="translate(-208.74 -26.19)"/><line class="cls-3" x1="101.97" y1="48.09" x2="101.97" y2="48.08"/><path class="cls-2" d="M315.2,85.38l1.44,3.35a15,15,0,0,1,.53,1.42,2.78,2.78,0,0,1,.17,1,1.32,1.32,0,0,1-.11.53,1.21,1.21,0,0,1-.39.43,2.42,2.42,0,0,1-.75.31,5.88,5.88,0,0,1-1.18.15v.64h9.41v-.64a5.16,5.16,0,0,1-1.28-.19,2.6,2.6,0,0,1-1-.56,4.58,4.58,0,0,1-.89-1.13,18.58,18.58,0,0,1-.94-1.93l-7.67-19.39-2.13,5.25,4.28,9.51" transform="translate(-208.74 -26.19)"/><path class="cls-3" d="M310.71,74.28v0" transform="translate(-208.74 -26.19)"/><path class="cls-5" d="M260.42,73.63c3.18-3.51,6.35-5.85,9.53-17.12,3.17-11.58,6.35-13.92,9.52-17.43" transform="translate(-208.74 -26.19)"/></g><path id="Foglia" class="cls-6" d="M280.92,68.23c2.65-3.07,6-6.78,5.95-11.77a14.29,14.29,0,0,0-6.16-12,14.35,14.35,0,0,0-6,12c0,4.92,3.05,8.7,5.81,11.7l.18-15.47Z" transform="translate(-208.74 -26.19)"/></svg>