<svg xmlns="http://www.w3.org/2000/svg" viewBox="0 0 460.41 425.11"><defs><style>.cls-1,.cls-3{fill:none;}.cls-2{fill:#ed1c24;}.cls-3{stroke:#000;stroke-miterlimit:10;stroke-width:2px;}</style></defs><title>Risorsa 3</title><g id="Livello_2" data-name="Livello 2"><g id="Livello_1-2" data-name="Livello 1"><path class="cls-1" d="M123.47,319.85h0l-10,10C119.3,329.67,123.47,325.71,123.47,319.85Z"/><path class="cls-1" d="M113,309.82c-6.09,0-10.55,4-10.55,10s4.46,10,10.55,10l.46,0,10-10C123.46,313.85,119.08,309.82,113,309.82Z"/><path class="cls-1" d="M58,227.06c-5.79,0-9.81,3.95-10,10.87l19.47-3.88A9.29,9.29,0,0,0,58,227.06Z"/><path class="cls-1" d="M123.32,336.27v-1.75c-3,3.42-7.43,5.1-12.64,5.1a21.91,21.91,0,0,1-6.12-.86l-5.31,5.3a24.64,24.64,0,0,0,12.33,3.38C119.75,347.44,123.32,343.64,123.32,336.27Z"/><path class="cls-1" d="M224.3,59V45L215,54.29A14.36,14.36,0,0,1,224.3,59Z"/><path class="cls-1" d="M164.26,168.47c5.79,0,10.18-4.26,10.18-11.32s-4.39-11.33-10.18-11.33-10.18,4.26-10.18,11.33S158.46,168.47,164.26,168.47Z"/><path class="cls-1" d="M110.39,168.47c5.72,0,10.18-4.26,10.18-11.32a12.78,12.78,0,0,0-1.71-6.69l-15.38,15.37A9.86,9.86,0,0,0,110.39,168.47Z"/><path class="cls-1" d="M290.2,227.06c-5.8,0-9.81,3.95-10,10.87l19.47-3.88A9.3,9.3,0,0,0,290.2,227.06Z"/><path class="cls-1" d="M105.48,227.82c-5.79,0-10.25,4.26-10.25,11.33s4.46,11.32,10.25,11.32,10.18-4.26,10.18-11.32S111.21,227.82,105.48,227.82Z"/><path class="cls-1" d="M214.34,86.47c5.72,0,10.18-4.26,10.18-11.32s-4.46-11.33-10.18-11.33-10.26,4.26-10.26,11.33S208.54,86.47,214.34,86.47Z"/><path class="cls-1" d="M392,309.82c-5.8,0-10.26,4.26-10.26,11.33s4.46,11.32,10.26,11.32,10.18-4.26,10.18-11.32S397.72,309.82,392,309.82Z"/><path class="cls-1" d="M387.32,86.47c5.79,0,10.18-4.26,10.18-11.32s-4.39-11.33-10.18-11.33-10.26,4.26-10.26,11.33S381.52,86.47,387.32,86.47Z"/><path class="cls-1" d="M436.13,86.47c5.73,0,10.18-4.26,10.18-11.32s-4.45-11.33-10.18-11.33-10.25,4.26-10.25,11.33S430.34,86.47,436.13,86.47Z"/><path class="cls-1" d="M338.65,86.47c5.79,0,10.18-4.26,10.18-11.32s-4.39-11.33-10.18-11.33-10.26,4.26-10.26,11.33S332.85,86.47,338.65,86.47Z"/><path class="cls-1" d="M284.26,321.15a12.85,12.85,0,0,0,1.54,6.37l15.32-15.32a9.86,9.86,0,0,0-6.61-2.38C288.72,309.82,284.26,314.08,284.26,321.15Z"/><path class="cls-1" d="M286.93,63.82c-6.09,0-10.55,4-10.55,10s4.46,10,10.55,10,10.48-4,10.48-10S293,63.82,286.93,63.82Z"/><path d="M82.1,81.08a13.11,13.11,0,0,0-9.51-13.15A12.84,12.84,0,0,0,79.5,56.22c0-8.28-6.69-13.83-19.69-13.83H34.39v53.2h26.9C75,95.59,82.1,90.27,82.1,81.08ZM46.36,51.66h12c5.87,0,9.07,2.05,9.07,6.23s-3.2,6.31-9.07,6.31h-12Zm0,34.66V73.17h14c6.24,0,9.59,2.13,9.59,6.61s-3.35,6.54-9.59,6.54Z"/><path d="M107.29,96.2a16,16,0,0,0,12.41-5.47v4.86h11V54.7H119.1V74.92c0,7.52-3.86,11-9.21,11-5.13,0-8.1-3-8.1-9.88V54.7H90.19V77.81C90.19,90.42,97.25,96.2,107.29,96.2Z"/><rect x="141.46" y="54.7" width="11.59" height="40.89"/><path d="M147.26,49c4.31,0,7.21-2.89,7.21-6.84,0-3.65-2.9-6.38-7.21-6.38s-7.21,2.88-7.21,6.61S143,49,147.26,49Z"/><path d="M190.19,95.21,189.67,86a7.47,7.47,0,0,1-3.27.76,5.26,5.26,0,0,1-3-.83l-8,8a16,16,0,0,0,8.79,2.27A18.35,18.35,0,0,0,190.19,95.21Z"/><path d="M175.42,81.38V39.2H163.83V82.06c0,5.55,2,9.56,5.55,11.87l8-8C176.1,85.07,175.42,83.53,175.42,81.38Z"/><path d="M212.33,96.2c5.35,0,9.59-1.75,12.49-5.32v4.71h11.07V39.2h-5.77L224.3,45V59A14.36,14.36,0,0,0,215,54.29L192.42,76.9C193.18,88.73,201.56,96.2,212.33,96.2Zm2-32.38c5.72,0,10.18,4.26,10.18,11.33s-4.46,11.32-10.18,11.32-10.26-4.26-10.26-11.32S208.54,63.82,214.34,63.82Z"/><polygon points="224.3 39.2 224.3 45.02 230.12 39.2 224.3 39.2"/><path d="M206.33,54.09c-11.29,0-20,8.21-20,21.06,0,.59,0,1.17.08,1.75L209,54.29A19.71,19.71,0,0,0,206.33,54.09Z"/><path d="M285.52,101.44c-5.13,0-10.7-1.82-14.12-4.63l-4.61,8.51c4.69,3.73,12,5.62,19.62,5.62,14.42,0,22.44-7,22.44-22.19v-34h-11V60c-3.05-4-7.66-5.86-13.23-5.86-11.07,0-20,7.83-20,19.76s8.92,19.77,20,19.77c5.2,0,9.58-1.68,12.63-5.1v1.75C297.26,97.64,293.69,101.44,285.52,101.44Zm1.41-17.55c-6.09,0-10.55-4-10.55-10s4.46-10,10.55-10,10.48,4,10.48,10S293,83.89,286.93,83.89Z"/><path d="M338.65,96.2c12.7,0,21.92-8.74,21.92-21s-9.22-21.06-21.92-21.06-22,8.74-22,21.06S325.94,96.2,338.65,96.2Zm0-32.38c5.79,0,10.18,4.26,10.18,11.33s-4.39,11.32-10.18,11.32-10.26-4.26-10.26-11.32S332.85,63.82,338.65,63.82Z"/><path d="M387.32,96.2c12.7,0,21.92-8.74,21.92-21S400,54.09,387.32,54.09s-22,8.74-22,21.06S374.61,96.2,387.32,96.2Zm0-32.38c5.79,0,10.18,4.26,10.18,11.33s-4.39,11.32-10.18,11.32-10.26-4.26-10.26-11.32S381.52,63.82,387.32,63.82Z"/><path d="M434.13,96.2c5.35,0,9.58-1.75,12.48-5.32v4.71h11.07V39.2H446.09V59c-2.9-3.34-7.06-4.94-12-4.94-11.3,0-20,8.21-20,21.06S422.83,96.2,434.13,96.2Zm2-32.38c5.73,0,10.18,4.26,10.18,11.33s-4.45,11.32-10.18,11.32-10.25-4.26-10.25-11.32S430.34,63.82,436.13,63.82Z"/><path class="cls-2" d="M45.17,157.38c0-7.53,4-11,9.58-11,5.13,0,8.1,3,8.1,9.66v21.58h11.6V154.18c0-12.46-7.14-18.09-16.58-18.09-5.12,0-9.58,1.68-12.7,4.87V121.2H33.58v56.39H45.17Z"/><path class="cls-2" d="M94.13,157.15c0-7.07,4.46-11.33,10.26-11.33a9.66,9.66,0,0,1,8.47,4.64l13.08-13.08v-.68H114.35V141c-2.9-3.34-7.06-4.94-12-4.94-11.29,0-20,8.21-20,21.06,0,7.21,2.75,13,7.15,16.62l7.94-7.94A11.58,11.58,0,0,1,94.13,157.15Z"/><path class="cls-2" d="M120.87,172.88v4.71h11.07V137.38l-13.08,13.08a12.78,12.78,0,0,1,1.71,6.69c0,7.06-4.46,11.32-10.18,11.32a9.86,9.86,0,0,1-6.91-2.64l-7.94,7.94a19.88,19.88,0,0,0,12.84,4.43C113.73,178.2,118,176.45,120.87,172.88Z"/><path class="cls-2" d="M153.7,177.59v-4.71c2.9,3.57,7.21,5.32,12.56,5.32,11.22,0,19.92-8.21,19.92-21s-8.7-21.06-19.92-21.06c-5,0-9.06,1.6-12,4.94V121.2h-6.11l-5.49,5.48v50.91Zm10.56-31.77c5.79,0,10.18,4.26,10.18,11.33s-4.39,11.32-10.18,11.32-10.18-4.26-10.18-11.32S158.46,145.82,164.26,145.82Z"/><path d="M199.7,117.78c-4.31,0-7.21,2.89-7.21,6.61s2.9,6.61,7.21,6.61,7.21-2.89,7.21-6.84C206.91,120.51,204,117.78,199.7,117.78Z"/><rect x="193.9" y="136.7" width="11.59" height="40.89"/><path d="M216,127.66v35.87c0,9.73,5.43,14.67,14.94,14.67a16.25,16.25,0,0,0,9.36-2.58l-3-8.37a8.09,8.09,0,0,1-4.76,1.53c-3.12,0-4.9-1.9-4.9-5.4V146.73h9.88v-9.12h-9.88v-10Z"/><path d="M255.05,148.86c0-2.13,2.23-3.8,7.43-3.8a22.55,22.55,0,0,1,11.52,3l3.87-8.43c-3.79-2.28-9.89-3.58-15.39-3.58-11.66,0-18.5,5.48-18.5,13.23,0,16.34,24.15,9.5,24.15,16.19,0,2.28-2,3.72-7.35,3.72a26.87,26.87,0,0,1-13.9-3.95L243,173.79c3.71,2.51,10.55,4.41,17.31,4.41a33.44,33.44,0,0,0,5.17-.39l13.65-13.65C278.11,149.4,255.05,155.7,255.05,148.86Z"/><path d="M279.2,171.2c0-.36,0-.7-.05-1L265.5,183.81C274.25,182.46,279.2,177.63,279.2,171.2Z"/><path d="M291.68,195.3l4.24-11c1.71-4.18,2-5.62,2-7.6a7.18,7.18,0,1,0-14.35,0,6.59,6.59,0,0,0,4,6.46l-3.27,12.09Z"/><path class="cls-2" d="M59.42,260.2c7.2,0,12.78-2.28,16.49-6.61l-6.16-6.84a13.4,13.4,0,0,1-10,3.95c-5.2,0-8.91-2-10.62-6.08l29.57-5.85c-.07-13.08-9.36-20.68-20.66-20.68a23.44,23.44,0,0,0-8.25,1.47L38,231.32a22.32,22.32,0,0,0-1.39,7.83C36.6,251.31,45.59,260.2,59.42,260.2ZM58,227.06a9.29,9.29,0,0,1,9.44,7L48,237.93C48.19,231,52.21,227.06,58,227.06Z"/><path class="cls-2" d="M38,231.32l11.76-11.76A19.86,19.86,0,0,0,38,231.32Z"/><path class="cls-2" d="M127,259.59V218.7H115.44V223c-2.9-3.34-7.06-4.94-12-4.94-11.3,0-20,8.21-20,21.06s8.69,21,20,21c5.35,0,9.58-1.75,12.48-5.32v4.71Zm-21.55-9.12c-5.79,0-10.25-4.26-10.25-11.32s4.46-11.33,10.25-11.33,10.18,4.26,10.18,11.33S111.21,250.47,105.48,250.47Z"/><path class="cls-2" d="M137.51,209.66v35.87c0,9.73,5.42,14.67,14.93,14.67a16.3,16.3,0,0,0,9.37-2.58l-3.05-8.37a8.09,8.09,0,0,1-4.76,1.53c-3.12,0-4.9-1.9-4.9-5.4V228.73H159v-9.12H149.1v-10Z"/><path d="M204.08,266.2a16.3,16.3,0,0,0,9.37-2.58l-3-8.37a8.09,8.09,0,0,1-4.76,1.53c-3.12,0-4.9-1.9-4.9-5.4v-2.8L190.51,258.8C192.67,263.71,197.34,266.2,204.08,266.2Z"/><path d="M200.74,228.73h9.88v-9.12h-9.88v-10H189.15v35.87a17.86,17.86,0,0,0,1.36,7.27l10.23-10.22Z"/><polygon points="231.57 203.2 219.98 203.2 219.98 223.33 231.57 211.74 231.57 203.2"/><path d="M231.57,265.59V245.38c0-7.53,4-11,9.59-11,5.13,0,8.1,3,8.1,9.66v21.58h11.59V242.18c0-12.46-7.13-18.09-16.57-18.09-5.13,0-9.59,1.68-12.71,4.87V217.74L220,229.33v36.26Z"/><path d="M290.2,224.09c-12.34,0-21.4,8.82-21.4,21.06s9,21,22.81,21c7.21,0,12.78-2.28,16.5-6.61l-6.17-6.84a13.39,13.39,0,0,1-10,3.95c-5.2,0-8.92-2-10.63-6.08l29.58-5.85C310.78,231.69,301.49,224.09,290.2,224.09Zm-10,19.84c.22-6.92,4.23-10.87,10-10.87a9.3,9.3,0,0,1,9.44,7Z"/><path d="M39.58,300.7v40.89H51.17v-19.3c0-7.83,4.23-11.4,10.62-11.4.9,0,1.64.07,2.6.15v-11c-6.16,0-10.92,2.06-13.74,6v-5.4Z"/><rect x="71.3" y="300.7" width="11.59" height="40.89"/><path d="M77.1,281.78c-4.31,0-7.21,2.89-7.21,6.61S72.79,295,77.1,295s7.21-2.89,7.21-6.84C84.31,284.51,81.41,281.78,77.1,281.78Z"/><path d="M123.47,325.85c0,5.86-4.17,9.82-10,10l-8.89,8.89a21.91,21.91,0,0,0,6.12.86c5.21,0,9.59-1.68,12.64-5.1v1.75c0,7.37-3.57,11.17-11.74,11.17a24.64,24.64,0,0,1-12.33-3.38l-5.39,5.39-1,1.87c4.68,3.73,12,5.62,19.62,5.62,14.41,0,22.44-7,22.44-22.19V314.4l-11.44,11.45Z"/><path d="M123.91,300.7V306c-3-4-7.65-5.86-13.23-5.86-11.07,0-20,7.83-20,19.76,0,9.63,5.8,16.58,13.86,18.91l8.89-8.89-.46,0c-6.09,0-10.55-4-10.55-10s4.46-10,10.55-10,10.47,4,10.48,10l11.44-11.45v-7.7Z"/><path d="M145.68,303.63v44h11.59V327.38c0-7.53,4-11,9.59-11,5.13,0,8.1,3,8.1,9.66v21.58h11.59V324.18c0-12.46-7.13-18.09-16.57-18.09-5.13,0-9.59,1.68-12.71,4.87V292Z"/><polygon points="157.27 285.2 145.68 285.2 145.68 297.63 157.27 286.04 157.27 285.2"/><path d="M221.1,345.62l-3-8.37a8,8,0,0,1-4.75,1.53c-3.12,0-4.91-1.9-4.91-5.4V316.73h9.89v-9.12h-9.89v-9.95H196.8v35.87c0,9.73,5.43,14.67,14.94,14.67A16.27,16.27,0,0,0,221.1,345.62Z"/><path d="M265.23,299.94a8,8,0,0,1,4.69,1.44l3-8.59c-2.15-1.52-5.5-2.2-8.84-2.2-10,0-15.46,6-15.46,15.2v41.8h11.6V316.73h9.95v-9.12H260v-1.74C260,301.84,261.82,299.94,265.23,299.94Z"/><path d="M312.66,314.65l-7.54,7.55c2.21,1.94,3.57,5,3.57,8.95,0,7.06-4.38,11.32-10.18,11.32a9.69,9.69,0,0,1-8.71-5l-7.89,7.89a22.23,22.23,0,0,0,16.6,6.79c12.71,0,21.92-8.74,21.92-21.05A20.37,20.37,0,0,0,312.66,314.65Z"/><path d="M284.26,327.15c0-7.07,4.46-11.33,10.25-11.33a9.86,9.86,0,0,1,6.61,2.38l7.54-7.55a22.87,22.87,0,0,0-14.15-4.56c-12.71,0-22,8.74-22,21.06a20.63,20.63,0,0,0,5.39,14.26l7.89-7.89A12.85,12.85,0,0,1,284.26,327.15Z"/><path d="M347.18,310.09c-12.71,0-22,8.74-22,21.06s9.29,21.05,22,21.05,21.92-8.74,21.92-21.05S359.89,310.09,347.18,310.09Zm0,32.38c-5.8,0-10.25-4.26-10.25-11.32s4.45-11.33,10.25-11.33,10.18,4.26,10.18,11.33S353,342.47,347.18,342.47Z"/><path d="M406,315c-2.9-3.34-7.06-4.94-12-4.94-11.29,0-20,8.21-20,21.06s8.7,21.05,20,21.05c5.35,0,9.59-1.75,12.49-5.32v4.71h11.07V295.2H406Zm-10,27.44c-5.8,0-10.26-4.26-10.26-11.32s4.46-11.33,10.26-11.33,10.18,4.26,10.18,11.33S401.72,342.47,396,342.47Z"/><line class="cls-3" x1="0.71" y1="263.21" x2="263.21" y2="0.71"/><line class="cls-3" x1="18.91" y1="424.41" x2="309.41" y2="133.91"/><line class="cls-3" x1="253.21" y1="372.71" x2="459.71" y2="166.21"/></g></g></svg>